<svg xmlns="http://www.w3.org/2000/svg" width="337.73" height="77.313" viewBox="0 0 337.73 77.313">
  <g id="logo_Sagr" transform="translate(-252.09 -259.007)">
    <path id="Path_55" data-name="Path 55" d="M378.93,315.54a2.85,2.85,0,0,1-.13-2.28v-.47h-3.52l-7.56,17.75H371l1.12-2.73h7.75l1.12,2.73h3.94ZM373,325.33l1.63-4c.77-1.84,1.22-2.94,1.36-3.28.35.78.8,1.88,1.35,3.28l1.59,4Z" fill="#6d6e71"/>
    <path id="Path_56" data-name="Path 56" d="M390.23,330.51h-3.38v-18h3.38Z" fill="#6d6e71"/>
    <path id="Path_57" data-name="Path 57" d="M407.15,325.19a4.7,4.7,0,0,1-2.38,4.35,10.22,10.22,0,0,1-5.11,1.11,21.29,21.29,0,0,1-6.32-1.14l.69-2.59a15.63,15.63,0,0,0,5.18,1c2.76,0,4.15-.78,4.15-2.35,0-1-.9-1.76-2.7-2.24-3.18-.86-4.82-1.3-4.94-1.35A4.09,4.09,0,0,1,393,318a4.72,4.72,0,0,1,2.38-4.35,9.91,9.91,0,0,1,5.11-1.17,14.84,14.84,0,0,1,6.08,1.34l-.83,2.52a11.14,11.14,0,0,0-4.76-1.07c-2.7,0-4,.74-4,2.21,0,.86.88,1.51,2.66,2a44.747,44.747,0,0,1,4.9,1.45,4.47,4.47,0,0,1,2.61,4.26Z" fill="#6d6e71"/>
    <path id="Path_58" data-name="Path 58" d="M466,330.51h-3.8V312.83H466Z" fill="#6d6e71"/>
    <path id="Path_59" data-name="Path 59" d="M498.08,325.93a4,4,0,0,1-1.55,3.37,7.53,7.53,0,0,1-4.86,1.35,15.54,15.54,0,0,1-5.82-1.06c.14-.41.38-1.18.73-2.29a10.849,10.849,0,0,0,4.57,1c2.39,0,3.53-.61,3.44-1.83q-.07-.93-2.31-1.38a37.576,37.576,0,0,1-4.15-1.07,3.38,3.38,0,0,1-2.28-3.11,3.91,3.91,0,0,1,1.63-3.44,8,8,0,0,1,4.83-1.26,14.46,14.46,0,0,1,5.35,1l-.72,2.28a12,12,0,0,0-4.21-.83c-2.35,0-3.49.57-3.42,1.72,0,.57.83,1,2.34,1.34a32.706,32.706,0,0,1,4.18,1.11,3.29,3.29,0,0,1,2.25,3.1Z" fill="#6d6e71"/>
    <path id="Path_60" data-name="Path 60" d="M513.83,330.51h-2.15l-.72-1a15.05,15.05,0,0,1-4.94,1.21q-3,0-4.18-2a10.59,10.59,0,0,1-.9-5v-7.29h3.39v7.4a9.909,9.909,0,0,0,.34,3.24A2.23,2.23,0,0,0,507,328.3a7.9,7.9,0,0,0,3.49-.9v-11h3.39Z" fill="#6d6e71"/>
    <path id="Path_61" data-name="Path 61" d="M559.06,330.51h-3.38v-7.25a10.2,10.2,0,0,0-.35-3.28A2.22,2.22,0,0,0,553,318.7a7.65,7.65,0,0,0-3.51.93v10.88h-3.38V316.38h2.17l.73,1a14.739,14.739,0,0,1,4.94-1.21q3,0,4.17,2a10.48,10.48,0,0,1,.9,5Z" fill="#6d6e71"/>
    <path id="Path_62" data-name="Path 62" d="M574.19,329.61a12.641,12.641,0,0,1-5.63,1.14,6.33,6.33,0,0,1-5-2,7.61,7.61,0,0,1-1.78-5.25,7.46,7.46,0,0,1,1.88-5.25,6.56,6.56,0,0,1,5.06-2,13.221,13.221,0,0,1,5.32,1.11l-.69,2.31a9.7,9.7,0,0,0-4.06-.9q-4.12,0-4.12,4.77c0,3.15,1.31,4.73,4,4.73a10.08,10.08,0,0,0,4.36-.93Z" fill="#6d6e71"/>
    <path id="Path_63" data-name="Path 63" d="M589.8,323.71a7.5,7.5,0,0,1,0,.82H579.3a3.5,3.5,0,0,0,1.28,3,6,6,0,0,0,3.35.73,11.25,11.25,0,0,0,4.59-1.07l.69,2.24a12.23,12.23,0,0,1-5.35,1.25q-4,0-5.94-1.63-2.11-1.75-2.11-5.63,0-7.24,7.05-7.25T589.8,323.71Zm-3.56-1.39a4.12,4.12,0,0,0-.76-2.76,3.47,3.47,0,0,0-2.68-.86c-2.22,0-3.38,1.21-3.5,3.62Z" fill="#6d6e71"/>
    <path id="Path_64" data-name="Path 64" d="M432.88,316.18a5.81,5.81,0,0,0-4.83,2.07,10,10,0,0,0,0,10.36,5.78,5.78,0,0,0,4.83,2.11,9.62,9.62,0,0,0,4.39-1.21v1c0,2.16-1.1,3.25-3.28,3.25a16.851,16.851,0,0,1-5.88-1l-.65,2.42a17.65,17.65,0,0,0,6.32,1.14q6.8,0,6.8-5.15V319.35a4.08,4.08,0,0,1,1-2.7v-.47Zm4.39,5v6.1a7,7,0,0,1-3.63.93c-2.44,0-3.66-1.58-3.66-4.76s1.22-4.8,3.66-4.8h4.08a7.318,7.318,0,0,0-.45,2.51Z" fill="#6d6e71"/>
    <path id="Path_65" data-name="Path 65" d="M482.92,330.51h-3.39v-7.25a10.29,10.29,0,0,0-.34-3.28,2.24,2.24,0,0,0-2.3-1.28,7.609,7.609,0,0,0-3.5.93v10.88H470V316.38h2.18l.72,1a14.8,14.8,0,0,1,4.94-1.21,4.464,4.464,0,0,1,4.18,2,10.479,10.479,0,0,1,.9,5Z" fill="#6d6e71"/>
    <path id="Path_66" data-name="Path 66" d="M444.07,321.8v8.71h3.38v-9.2c0-1.38,1.14-2.82,3.49-2.82a10.881,10.881,0,0,1,2.59.33v-2.48a13.8,13.8,0,0,0-3-.34C446.66,316,444.07,318.13,444.07,321.8Z" fill="#6d6e71"/>
    <path id="Path_67" data-name="Path 67" d="M517.52,321.8v8.71h3.38v-9.2c0-1.38,1.14-2.82,3.49-2.82a10.881,10.881,0,0,1,2.59.33v-2.48a13.8,13.8,0,0,0-3-.34C520.11,316,517.52,318.13,517.52,321.8Z" fill="#6d6e71"/>
    <path id="Path_68" data-name="Path 68" d="M415.89,316.18a5.72,5.72,0,0,0-4.87,2.14,10,10,0,0,0,0,10.26,5.75,5.75,0,0,0,4.87,2.14,7.54,7.54,0,0,0,4.56-1.66l1,1.45h2.18V319.35a4,4,0,0,1,1-2.7v-.47Zm4.35,5v5.35a5.17,5.17,0,0,1-3.62,1.68c-2.42,0-3.63-1.58-3.63-4.76s1.21-4.8,3.64-4.8h4.06a7.56,7.56,0,0,0-.45,2.51Z" fill="#6d6e71"/>
    <path id="Path_69" data-name="Path 69" d="M534.89,316.18a5.72,5.72,0,0,0-4.87,2.14,10,10,0,0,0,0,10.26,5.75,5.75,0,0,0,4.87,2.14,7.54,7.54,0,0,0,4.56-1.66l1,1.45h2.18V319.35a4,4,0,0,1,1-2.7v-.47Zm4.35,5v5.35a5.18,5.18,0,0,1-3.63,1.68c-2.41,0-3.62-1.58-3.62-4.76s1.21-4.8,3.64-4.8h4.06a7.559,7.559,0,0,0-.45,2.51Z" fill="#6d6e71"/>
    <path id="Path_70" data-name="Path 70" d="M418.87,278.49c-3.39,0-5.95,1-7.66,2.89a9.87,9.87,0,0,0-2.2,6.74,10,10,0,0,0,2,6.56h-8.28v-6.51a9.94,9.94,0,0,0-2.2-6.79q-2.52-2.89-7.62-2.89H385.7v.62a5.38,5.38,0,0,1,1.36,3.59v12h-8.84c-3.6,0-5.39-2.19-5.39-6.56V278.5h-4.41v9.64a10,10,0,0,0,2.2,6.78c1.69,1.93,4.22,2.9,7.62,2.9h13.23V285a9.859,9.859,0,0,0-.6-3.36H393c3.59,0,5.39,2.18,5.39,6.56v9.64h20.46c3.39,0,5.95-1,7.66-2.89a11.14,11.14,0,0,0,0-13.53Q423.92,278.49,418.87,278.49Zm-.07,16.19q-5.39,0-5.39-6.56c0-4.34,1.82-6.51,5.44-6.51s5.44,2.17,5.44,6.51S422.46,294.68,418.8,294.68Z" fill="#6d6e71"/>
    <rect id="Rectangle_5" data-name="Rectangle 5" width="4.5" height="28.29" transform="translate(585.32 269.51)" fill="#6d6e71"/>
    <path id="Path_71" data-name="Path 71" d="M452.28,275.11a2.21,2.21,0,1,0-2.2-2.21,2.21,2.21,0,0,0,2.2,2.21Z" fill="#6d6e71"/>
    <path id="Path_72" data-name="Path 72" d="M457.8,275.11a2.21,2.21,0,1,0-2.21-2.21,2.21,2.21,0,0,0,2.21,2.21Z" fill="#6d6e71"/>
    <path id="Path_73" data-name="Path 73" d="M393.43,301.4a2.19,2.19,0,1,0,1.559.641,2.2,2.2,0,0,0-1.559-.641Z" fill="#6d6e71"/>
    <path id="Path_74" data-name="Path 74" d="M399,301.4a2.19,2.19,0,1,0,1.559.641A2.2,2.2,0,0,0,399,301.4Z" fill="#6d6e71"/>
    <path id="Path_75" data-name="Path 75" d="M520.28,275.11a2.21,2.21,0,1,0-2.2-2.21,2.21,2.21,0,0,0,2.2,2.21Z" fill="#6d6e71"/>
    <path id="Path_76" data-name="Path 76" d="M525.8,275.11a2.21,2.21,0,1,0-2.21-2.21A2.21,2.21,0,0,0,525.8,275.11Z" fill="#6d6e71"/>
    <path id="Path_77" data-name="Path 77" d="M379.94,275.11a2.21,2.21,0,1,0-2.2-2.21,2.21,2.21,0,0,0,2.2,2.21Z" fill="#6d6e71"/>
    <path id="Path_78" data-name="Path 78" d="M577.05,288.12c0,4.37-1.79,6.56-5.39,6.56h-5.6a10,10,0,0,0,2-6.56,9.87,9.87,0,0,0-2.2-6.74c-1.71-1.93-4.42-2.89-7.66-2.89a27.17,27.17,0,0,0-13.63,4.69v-4.69H540.2v10.14a14.559,14.559,0,0,1-.41,4.35,2.69,2.69,0,0,1-2.75,1.7h-7.79a9.75,9.75,0,0,0,2.12-6.51V282.7a5.43,5.43,0,0,1,1.36-3.59v-.62H521.42q-5.1,0-7.62,2.89a11.49,11.49,0,0,0-.16,13.3h-6.88a13.77,13.77,0,0,1-5.76-1.29v-14.9h-4.5v18.33c0,3.81-1.38,5.93-4.15,6.41V304c2.74,1.72,8.65,1.38,8.65-7.13v-.53a13.74,13.74,0,0,0,5.78,1.51h31.91a5.18,5.18,0,0,0,4.47-2h0a14.451,14.451,0,0,0,6.74,2h21.79q5.07,0,7.57-2.89a10,10,0,0,0,2.21-6.79V269.51h-4.41Zm-61,.05c0-4.38,1.8-6.56,5.4-6.56h6.07a9.851,9.851,0,0,0-.59,3.36v3.2q0,6.48-5.4,6.51h-.08q-5.45-.03-5.45-6.51Zm32.24,6.51a8.55,8.55,0,0,1-4.1-1.27,18.141,18.141,0,0,0,.38-2.56h0c0-4.34,7-9.22,13.73-9.22,3.54,0,5.44,2.17,5.44,6.51s-1.79,6.55-5.37,6.56H548.24Z" fill="#6d6e71"/>
    <path id="Path_79" data-name="Path 79" d="M481.93,288.12q0,6.56-5.39,6.56a14.32,14.32,0,0,1-4.91-.94,10.85,10.85,0,0,0,1.37-5.62V269.51h-4.4v18.61q0,6.56-5.39,6.56a14,14,0,0,1-5.73-1.27,21.85,21.85,0,0,0,.47-5v-9.95h-4.4V288.6a14.459,14.459,0,0,1-.42,4.35,2.56,2.56,0,0,1-2.66,1.7H443c-3.6,0-5.39-2.19-5.39-6.56V269.51H433.2v18.61a10,10,0,0,0,2.21,6.79Q438,297.8,443,297.8h9a5.18,5.18,0,0,0,4.47-2h0a14.481,14.481,0,0,0,6.74,2,10.29,10.29,0,0,0,6.59-2,14.48,14.48,0,0,0,6.74,2c3.37,0,5.9-1,7.57-2.89a10,10,0,0,0,2.2-6.79V269.51h-4.4Z" fill="#6d6e71"/>
    <path id="Path_80" data-name="Path 80" d="M439.17,266v-1.77h-2.93c-.56,0-1.3-.18-1.3-1.72s.73-1.65,1.38-1.65a3.811,3.811,0,0,1,1.57.35l.41.18.52-1.74-.32-.14a6.15,6.15,0,0,0-2.43-.5,3.17,3.17,0,0,0-2.44,1,3.56,3.56,0,0,0-.91,2.51,4.06,4.06,0,0,0,.34,1.72h-2V266h8.14Z" fill="#6d6e71"/>
    <path id="Path_81" data-name="Path 81" d="M350.28,324.63a30.24,30.24,0,0,1-30.2-30.2,32.36,32.36,0,0,1,1.93-11,19,19,0,0,1,4.22-6.61,12.58,12.58,0,0,1,16.55-1.19l.07.06-.49-1.36a14.1,14.1,0,0,0-13.24-9.26H316.78a31.19,31.19,0,0,0-29.22,20.46L278,311.91a19.4,19.4,0,0,1-18.22,12.75h-7.69l2.13,5.88h28.86a31.2,31.2,0,0,0,29.23-20.46l4.36-12a36.16,36.16,0,0,0,35.93,32.44h2.31l2.14-5.91Zm-41.54-39.07-9.58,26.35A19.44,19.44,0,0,1,281,324.66h-1a31,31,0,0,0,11.08-14.58l9.61-26.37A19.42,19.42,0,0,1,318.93,271h1A31,31,0,0,0,308.74,285.56Z" fill="#009490"/>
  </g>
</svg>
